<svg width="57" height="57" viewBox="0 0 57 57" fill="none" xmlns="http://www.w3.org/2000/svg">
<path d="M14.6 17.4136L25.4 28.0039M14.6 17.4136H7.4L5 10.3534L7.4 8L14.6 10.3534V17.4136ZM46.4216 9.74389L40.1154 15.9277C39.165 16.8597 38.6895 17.3257 38.5117 17.863C38.355 18.3357 38.355 18.8449 38.5117 19.3175C38.6895 19.8549 39.165 20.3209 40.1154 21.2528L40.6846 21.8112C41.635 22.7432 42.1105 23.2092 42.6584 23.3838C43.1403 23.5374 43.6597 23.5374 44.1416 23.3838C44.6895 23.2092 45.165 22.7432 46.1154 21.8112L52.0143 16.0268C52.6496 17.5427 53 19.2031 53 20.9437C53 28.0924 47.0902 33.8874 39.8 33.8874C38.9211 33.8874 38.0622 33.8031 37.2315 33.6424C36.0646 33.4169 35.4812 33.304 35.1277 33.3385C34.7516 33.3753 34.5663 33.4306 34.2332 33.6054C33.9198 33.7699 33.6056 34.078 32.9768 34.6946L15.8 51.5378C13.8118 53.4874 10.5882 53.4874 8.6 51.5378C6.61177 49.5883 6.61177 46.4272 8.6 44.4776L25.7768 27.6344C26.4056 27.0178 26.7198 26.7096 26.8875 26.4024C27.0658 26.0757 27.1222 25.894 27.1597 25.5253C27.195 25.1785 27.0798 24.6065 26.8498 23.4624C26.6859 22.6477 26.6 21.8055 26.6 20.9437C26.6 13.7951 32.5098 8 39.8 8C42.2132 8 44.4752 8.63499 46.4216 9.74389ZM29.0002 38.5939L42.2 51.5376C44.1882 53.4872 47.4118 53.4872 49.4 51.5376C51.3882 49.588 51.3882 46.427 49.4 44.4774L38.5407 33.8292C37.772 33.7579 37.0225 33.6219 36.2979 33.4268C35.3641 33.1755 34.3398 33.3581 33.6553 34.0293L29.0002 38.5939Z" stroke="white" stroke-width="5" stroke-linecap="round" stroke-linejoin="round"/>
</svg>
